<svg width="30" height="30" viewBox="0 0 30 30" fill="none" xmlns="http://www.w3.org/2000/svg">
<g clip-path="url(#clip0_196_158)">
<path d="M15 0C12.0333 0 9.13319 0.879735 6.66645 2.52796C4.19972 4.17618 2.27713 6.51886 1.14181 9.25975C0.00649929 12.0006 -0.290551 15.0166 0.288228 17.9264C0.867006 20.8361 2.29562 23.5088 4.3934 25.6066C6.49119 27.7044 9.16394 29.133 12.0737 29.7118C14.9834 30.2906 17.9994 29.9935 20.7403 28.8582C23.4811 27.7229 25.8238 25.8003 27.472 23.3336C29.1203 20.8668 30 17.9667 30 15C30 11.0218 28.4197 7.20644 25.6066 4.3934C22.7936 1.58035 18.9783 0 15 0ZM23.6625 10.25L15.1 21.8625C15.0004 21.9983 14.8743 22.1125 14.7294 22.1984C14.5846 22.2842 14.4238 22.3399 14.2569 22.3621C14.0899 22.3843 13.9202 22.3725 13.7579 22.3275C13.5956 22.2824 13.4441 22.2051 13.3125 22.1L7.20001 17.2125C7.0716 17.1093 6.96484 16.9818 6.88587 16.8373C6.80691 16.6927 6.75729 16.534 6.73986 16.3702C6.72244 16.2064 6.73756 16.0408 6.78434 15.8829C6.83113 15.725 6.90867 15.5779 7.01251 15.45C7.22022 15.198 7.51832 15.0372 7.84305 15.0022C8.16777 14.9671 8.49331 15.0606 8.75001 15.2625L13.85 19.3375L21.65 8.75C21.8468 8.48643 22.1396 8.31106 22.4648 8.26193C22.7901 8.21279 23.1216 8.29384 23.3875 8.4875C23.5225 8.5842 23.6369 8.70683 23.724 8.84823C23.8111 8.98963 23.8692 9.14697 23.8948 9.31106C23.9204 9.47515 23.913 9.64269 23.8731 9.8039C23.8333 9.96512 23.7617 10.1168 23.6625 10.25Z" fill="#19C521"/>
</g>
<defs>
<clipPath id="clip0_196_158">
<rect width="30" height="30" fill="white"/>
</clipPath>
</defs>
</svg>
