<svg width="488" height="116" viewBox="0 0 488 116" fill="none" xmlns="http://www.w3.org/2000/svg">
<path d="M27.8785 27.6863V25.8277H44.2211V27.5581C41.8498 28.0067 40.2476 28.1349 40.2476 31.788V44.2852C34.9282 45.7593 30.442 46.7847 25.1868 46.7847C11.4718 46.7847 2.7558 38.5173 2.7558 25.0587C2.7558 11.6001 12.1127 1.79455 27.0453 1.79455C31.0829 1.79455 35.6973 2.56362 40.3757 4.294L38.0045 15.6377H36.0818L33.9028 5.57578C31.7238 4.80671 29.4807 4.35809 26.6608 4.35809C15.7658 4.35809 9.42101 13.8432 9.42101 24.0973C9.42101 36.3382 15.4453 44.2211 26.4045 44.2211C31.147 44.2211 34.3514 43.1316 34.3514 38.0686V32.4289C34.3514 28.1349 32.1083 28.0067 27.8785 27.6863ZM72.7064 40.8885C70.2069 43.7725 66.1053 46.7206 60.4014 46.7206C51.6854 46.7206 47.1992 40.504 47.1992 32.557C47.1992 23.4565 52.7749 16.4067 61.8754 16.4067C68.797 16.4067 72.7705 21.0211 72.7705 28.0067V30.7626H53.2876V31.0189C53.2876 38.0686 56.4279 42.7471 63.029 42.7471C66.8102 42.7471 69.502 41.209 71.4246 39.4145L72.7064 40.8885ZM60.6577 18.5857C56.492 18.5857 53.9285 22.8156 53.4157 28.6476L66.8743 28.2631C66.8743 23.0719 65.2721 18.5857 60.6577 18.5857ZM85.493 46.7847C80.5582 46.7847 78.1229 43.9648 78.1229 38.7736V20.1239H74.0853V18.3935C78.3151 17.6244 80.7505 14.2277 82.0963 9.48517H84.019V17.4321L93.7604 17.0476V20.1239H84.019V36.4023C84.019 41.8499 85.5571 43.4521 89.0179 43.4521C90.6201 43.4521 91.966 43.0675 93.1837 42.6189L93.9527 44.5416C91.3251 45.8233 88.4411 46.7847 85.493 46.7847ZM140.023 33.8388C140.023 41.7858 133.165 46.1438 121.565 46.1438H104.838V44.3493C107.402 44.0289 108.619 43.7084 109.196 42.7471C109.837 41.6576 109.901 39.6708 109.901 36.2742V12.4332C109.901 8.90838 109.901 7.1139 109.196 6.02439C108.619 4.99898 107.402 4.67854 104.838 4.35809V2.56362H120.668C131.884 2.56362 137.459 5.4476 137.459 12.3051C137.459 17.8808 133.678 21.3415 127.846 23.0078C134.96 24.1614 140.023 27.2377 140.023 33.8388ZM119.707 4.8708H115.926V22.2388H119.194C127.077 22.2388 131.05 18.8421 131.05 13.3946C131.05 7.94705 127.141 4.8708 119.707 4.8708ZM115.926 43.8366H121.694C129.705 43.8366 133.422 40.1836 133.422 34.4797C133.422 28.5835 129.384 24.546 121.565 24.546H115.926V43.8366ZM171.921 16.4067V37.2355C171.921 43.2598 172.626 43.9648 176.792 43.9648V45.567L166.089 46.7847V41.8499C163.333 44.6698 160.321 46.7847 156.091 46.7847C149.682 46.7847 146.285 42.8112 146.285 35.441V25.5714C146.285 19.9957 145.58 19.3548 141.479 19.3548V17.7526L152.118 16.4067V33.7106C152.118 40.2476 154.745 42.2985 159.103 42.2985C162.115 42.2985 164.294 41.2731 166.089 39.799V25.5714C166.089 19.9957 165.384 19.3548 161.346 19.3548V17.7526L171.921 16.4067ZM188.891 24.8023V37.7482C188.891 40.5681 188.955 42.1062 189.468 43.0035C190.045 44.093 191.198 44.2211 193.313 44.5416V46.1438C189.853 45.9515 189.212 45.8874 185.943 45.8874C182.739 45.8874 182.034 45.9515 178.637 46.1438V44.5416C180.624 44.2211 181.777 44.093 182.354 43.1957C182.931 42.2985 182.995 40.7604 182.995 37.6841V26.4045C182.995 23.3924 182.995 21.9824 182.354 21.2134C181.842 20.5725 180.88 20.4443 178.829 20.1879V18.5216C182.611 18.2012 185.11 17.5603 187.994 16.599L189.212 17.304C189.084 18.5857 188.955 20.0598 188.955 21.662C191.775 18.7139 194.852 16.4067 199.53 16.4067C205.747 16.4067 209.592 20.3161 209.592 27.6863V37.7482C209.592 40.5681 209.656 42.1062 210.169 43.0035C210.745 44.093 211.899 44.2211 214.014 44.5416V46.1438C210.617 45.9515 209.912 45.8874 206.644 45.8874C203.439 45.8874 202.734 45.9515 199.338 46.1438V44.5416C201.324 44.2211 202.478 44.093 203.119 43.1957C203.632 42.2985 203.76 40.7604 203.76 37.6841V30.1217C203.76 23.2642 201.132 20.8929 196.582 20.8929C193.249 20.8929 190.814 22.0465 188.891 23.5846C188.891 23.9692 188.891 24.3537 188.891 24.8023ZM243.882 8.2034V37.2355C243.882 43.2598 244.587 43.9648 248.753 43.9648V45.567L238.05 46.7847V41.2731C235.487 44.093 232.282 46.7206 227.347 46.7206C220.618 46.7206 216.324 41.0167 216.324 33.0056C216.324 23.3924 222.669 16.4067 232.795 16.4067C234.653 16.4067 236.448 16.6631 238.05 17.1117V9.8697C238.05 6.79346 237.986 5.38351 237.409 4.61445C236.832 3.97356 235.935 3.84539 233.82 3.58903V1.92273C237.666 1.5382 240.101 0.961403 242.985 7.63994e-05L244.203 0.640961C243.946 2.81997 243.882 5.19124 243.882 8.2034ZM222.284 31.083C222.284 37.5559 224.976 42.2985 230.424 42.2985C233.436 42.2985 235.871 41.0808 238.05 39.2863V21.5979C236.512 19.8034 234.589 18.6498 231.577 18.6498C225.553 18.6498 222.284 23.9051 222.284 31.083ZM260.856 8.2034V36.2742C260.856 40.0554 260.856 41.978 261.432 43.0035C262.009 44.093 263.163 44.2211 265.278 44.5416V46.1438C261.881 45.9515 261.176 45.8874 257.908 45.8874C254.703 45.8874 253.998 45.9515 250.601 46.1438V44.5416C252.588 44.2211 253.806 44.093 254.383 43.1957C255.024 42.1703 255.024 40.3117 255.024 36.2742V9.80561C255.024 6.79346 254.96 5.38351 254.383 4.61445C253.806 3.97356 252.909 3.84539 250.794 3.58903V1.92273C254.639 1.5382 257.074 0.961403 259.958 7.63994e-05L261.176 0.640961C260.92 2.81997 260.856 5.19124 260.856 8.2034ZM293.531 40.8885C291.032 43.7725 286.93 46.7206 281.226 46.7206C272.51 46.7206 268.024 40.504 268.024 32.557C268.024 23.4565 273.6 16.4067 282.7 16.4067C289.622 16.4067 293.595 21.0211 293.595 28.0067V30.7626H274.112V31.0189C274.112 38.0686 277.253 42.7471 283.854 42.7471C287.635 42.7471 290.327 41.209 292.249 39.4145L293.531 40.8885ZM281.483 18.5857C277.317 18.5857 274.753 22.8156 274.241 28.6476L287.699 28.2631C287.699 23.0719 286.097 18.5857 281.483 18.5857ZM316.768 14.6763V17.4321L326.189 17.0476V20.252H316.768L316.832 37.7482C316.832 40.5681 316.896 42.1062 317.345 43.0035C317.921 44.093 319.139 44.2211 321.19 44.5416V46.1438C317.793 45.9515 316.832 45.8874 313.884 45.8874C310.936 45.8874 309.974 45.9515 306.578 46.1438V44.5416C308.5 44.2211 309.718 44.093 310.295 43.1957C310.872 42.2985 310.936 40.7604 310.936 37.6841V20.252H305.681V18.2653L310.936 17.6885C311.192 4.8708 317.088 7.63994e-05 324.523 7.63994e-05C326.381 7.63994e-05 328.047 0.256431 329.778 0.897315L327.727 8.84429H326.125L324.202 2.75588C323.561 2.49953 322.984 2.37135 322.344 2.37135C318.883 2.37135 316.704 6.66528 316.768 14.6763ZM340.284 46.7847C332.081 46.7847 325.736 41.5935 325.736 32.3007C325.736 22.8156 332.594 16.4067 340.797 16.4067C349.064 16.4067 355.345 21.9183 355.345 31.1471C355.345 40.6322 348.552 46.7847 340.284 46.7847ZM340.669 44.5416C346.052 44.5416 349 39.5427 349 32.2366C349 25.1228 346.437 18.6498 340.477 18.6498C335.029 18.6498 332.081 23.7769 332.081 31.083C332.081 38.1968 334.709 44.5416 340.669 44.5416ZM368.657 24.6101V25.1228C371.477 20.5084 374.425 17.0476 378.783 17.0476C379.232 17.0476 379.937 17.0476 380.642 17.1758L379.68 22.9438C375.002 22.9438 371.221 24.0333 368.657 27.1736V37.7482C368.657 40.5681 368.721 42.1062 369.234 43.0035C369.811 44.093 370.964 44.2211 374.617 44.5416V46.1438C369.618 45.9515 368.977 45.8874 365.709 45.8874C362.504 45.8874 361.8 45.9515 358.403 46.1438V44.5416C360.39 44.2211 361.543 44.093 362.12 43.1957C362.697 42.2985 362.761 40.7604 362.761 37.6841V26.2123C362.761 23.2001 362.761 21.7902 362.12 21.0211C361.607 20.3802 360.646 20.252 358.595 19.9957V18.3294C362.312 18.0089 364.748 17.3681 367.567 16.4708L368.977 17.1758C368.721 19.2907 368.657 21.662 368.657 24.6101ZM398.601 11.0874C396.422 11.0874 394.692 9.357 394.692 7.1139C394.692 4.93489 396.422 3.2045 398.601 3.2045C400.844 3.2045 402.575 4.93489 402.575 7.1139C402.575 9.357 400.844 11.0874 398.601 11.0874ZM402.254 24.8023V37.8764C402.254 48.3869 398.281 56.0134 390.847 60.2433L389.821 58.4488C396.038 54.3471 396.358 48.8355 396.358 40.1195V26.4045C396.358 23.3924 396.358 21.9824 395.717 21.2134C395.205 20.5725 394.243 20.4443 392.128 20.1879V18.5216C395.974 18.2012 398.409 17.5603 401.357 16.599L402.575 17.304C402.254 19.4189 402.254 21.8543 402.254 24.8023ZM437.19 16.4067V37.2355C437.19 43.2598 437.895 43.9648 442.06 43.9648V45.567L431.358 46.7847V41.8499C428.602 44.6698 425.59 46.7847 421.36 46.7847C414.951 46.7847 411.554 42.8112 411.554 35.441V25.5714C411.554 19.9957 410.849 19.3548 406.748 19.3548V17.7526L417.386 16.4067V33.7106C417.386 40.2476 420.014 42.2985 424.372 42.2985C427.384 42.2985 429.563 41.2731 431.358 39.799V25.5714C431.358 19.9957 430.653 19.3548 426.615 19.3548V17.7526L437.19 16.4067ZM453.391 33.7106C448.456 31.5957 445.124 29.609 445.124 25.0587C445.124 19.8675 449.802 16.4067 456.275 16.4067C459.223 16.4067 462.62 16.9835 465.44 18.5216L463.581 25.6355H462.171L460.377 19.6752C458.967 18.9703 457.557 18.6498 455.89 18.6498C452.237 18.6498 450.571 20.6366 450.571 23.0078C450.571 25.9559 453.199 27.1095 457.3 28.904C462.171 31.1471 465.824 33.1338 465.824 37.8764C465.824 43.5162 460.313 46.7847 453.711 46.7847C450.699 46.7847 447.11 46.1438 444.162 44.6057L446.085 37.2355H447.495L449.418 43.5162C450.956 44.2852 452.366 44.5416 454.16 44.5416C458.326 44.5416 460.377 42.4907 460.377 39.8631C460.377 36.6587 457.621 35.6333 453.391 33.7106ZM479.327 46.7847C474.392 46.7847 471.957 43.9648 471.957 38.7736V20.1239H467.919V18.3935C472.149 17.6244 474.584 14.2277 475.93 9.48517H477.853V17.4321L487.594 17.0476V20.1239H477.853V36.4023C477.853 41.8499 479.391 43.4521 482.852 43.4521C484.454 43.4521 485.8 43.0675 487.017 42.6189L487.786 44.5416C485.159 45.8233 482.275 46.7847 479.327 46.7847Z" fill="black"/>
<path d="M15.7017 110.873C10.9591 110.873 6.92156 109.784 2.88398 107.925L5.12708 98.0555H6.72929L8.52377 106.579C11.4718 107.925 13.5868 108.438 15.8939 108.502V91.4543C9.93372 88.6345 4.74255 85.9427 4.29393 80.1748C4.22984 79.6621 4.22984 79.1494 4.29393 78.6366C4.55028 73.3173 8.71603 69.0875 15.8939 68.1261V63.6399H18.7779V67.9339H19.0984C23.4564 67.9339 27.3017 69.0234 31.0829 70.7538L28.968 80.1107H27.3658L25.5713 72.0996C22.8155 70.8179 20.8288 70.3692 18.7779 70.3051V85.8146L18.9702 85.8786C25.5072 88.9549 31.5315 91.8389 32.0442 98.1195C32.1083 98.5682 32.1083 99.0809 32.1083 99.5936C31.7879 105.362 26.7249 109.784 18.7779 110.681V115.295H15.8939V110.873H15.7017ZM9.4851 76.9063C9.4851 80.4952 12.0486 82.4179 15.8939 84.4046V70.4974C11.6641 71.1383 9.4851 73.5096 9.4851 76.9063ZM26.5967 101.324C26.5967 97.3505 23.3282 95.1715 18.7779 92.8643V108.374C23.7127 107.733 26.5967 105.041 26.5967 101.324ZM64.459 99.2731L58.4988 98.6963V101.837C58.4988 104.657 58.6269 106.195 59.0756 107.092C59.6524 108.181 60.806 108.31 62.9209 108.63V110.232C59.5242 110.04 58.8192 109.976 55.6148 109.976C52.3463 109.976 51.6413 110.04 48.2446 110.232V108.63C50.2314 108.31 51.449 108.181 52.0258 107.284C52.4744 106.579 52.6026 105.426 52.6026 103.311V98.8245H32.9915V97.2864L55.2943 68.1902H58.4988V96.1328H65.0358L64.459 99.2731ZM52.6026 96.0687V76.0731L37.1573 96.1969L52.6026 96.0687ZM95.0958 96.5173C95.0958 105.874 86.6361 110.873 77.5355 110.873C73.5621 110.873 70.7422 110.232 67.8582 108.566L69.6527 99.5295H71.2549L73.6262 107.797C75.1002 108.31 76.5101 108.502 78.2405 108.502C84.0726 108.502 89.0074 105.105 89.0074 98.0555C89.0074 91.3262 84.5853 88.1217 78.561 88.1217C75.2284 88.1217 72.6007 89.2112 70.7422 90.6853L69.6527 89.9162L71.1267 68.5748H92.5963L92.34 73.9582H73.5621L72.793 86.6477C74.972 85.1096 77.4715 84.0842 81.2527 84.0842C89.5201 84.0842 95.0958 88.8267 95.0958 96.5173ZM115.425 110.873C106.068 110.873 100.044 101.452 100.044 89.724C100.044 78.893 105.555 67.9339 116.386 67.9339C125.871 67.9339 131.896 76.714 131.896 88.5704C131.896 100.17 125.551 110.873 115.425 110.873ZM116.002 108.502C121.706 108.502 125.487 101.132 125.487 89.788C125.487 78.0598 121.898 70.3051 115.745 70.3051C109.977 70.3051 106.452 76.6499 106.452 87.9295C106.452 99.7218 109.785 108.502 116.002 108.502ZM152.103 110.873C142.746 110.873 136.722 101.452 136.722 89.724C136.722 78.893 142.233 67.9339 153.064 67.9339C162.549 67.9339 168.574 76.714 168.574 88.5704C168.574 100.17 162.229 110.873 152.103 110.873ZM152.68 108.502C158.384 108.502 162.165 101.132 162.165 89.788C162.165 78.0598 158.576 70.3051 152.423 70.3051C146.655 70.3051 143.131 76.6499 143.131 87.9295C143.131 99.7218 146.463 108.502 152.68 108.502ZM206.028 110.937C201.093 110.937 196.991 109.912 193.146 108.053L196.287 97.8632H198.466L201.029 106.836C202.952 107.669 204.49 107.925 206.348 107.989V93.2488L206.092 93.1206C200.004 90.4289 194.107 87.4168 194.107 80.6234C194.107 80.1107 194.172 79.598 194.236 79.0853C194.877 73.8941 199.042 69.472 206.348 68.3184V63.1272H210.322V68.062C214.68 68.062 218.589 69.0875 222.178 70.8179L219.166 80.5593H216.987L214.552 72.0996C213.014 71.4587 211.732 71.1383 210.322 71.0101V84.3405L210.642 84.4687C216.987 87.3527 223.524 90.493 223.524 97.8632C223.524 98.3118 223.46 98.8245 223.396 99.3372C222.691 104.721 218.141 109.335 210.322 110.617V116H206.348V110.937H206.028ZM201.862 76.3936C201.862 79.2134 203.657 80.9438 206.348 82.4179V71.3306C203.272 71.9714 201.862 73.83 201.862 76.3936ZM215.385 101.837C215.385 98.8886 213.334 96.966 210.322 95.2356V107.605C213.719 106.707 215.385 104.528 215.385 101.837ZM242.419 105.81C242.996 106.964 243.957 107.156 248.508 107.797V110.232C242.74 110.04 241.137 109.976 237.356 109.976C233.575 109.976 231.973 110.04 226.205 110.232V107.797C230.563 107.156 231.652 106.964 232.165 106.002C232.742 104.977 232.806 103.375 232.806 99.5295V78.5085C232.806 74.9836 232.742 74.7272 226.205 73.6377V71.5869L240.561 67.9339H241.906V99.5936C241.906 103.118 241.906 104.785 242.419 105.81ZM255.427 108.117C264.912 105.618 269.527 100.555 271.257 92.9925C269.783 93.9538 267.668 94.5947 264.784 94.5947C257.35 94.5947 250.941 90.4289 250.941 82.482C250.941 75.1759 256.965 67.9339 266.835 67.9339C277.474 67.9339 281.832 76.3295 281.832 83.6355C281.832 95.4278 272.218 107.156 256.004 110.873L255.427 108.117ZM260.618 80.3029C260.618 87.2886 262.926 91.5184 267.155 91.5184C269.142 91.5184 270.744 90.6212 271.898 89.4035C272.154 87.5449 272.218 85.6223 272.218 83.5715C272.218 75.4963 270.808 70.8179 266.194 70.8179C261.259 70.8179 260.618 76.2654 260.618 80.3029ZM290.29 108.117C299.775 105.618 304.39 100.555 306.12 92.9925C304.646 93.9538 302.531 94.5947 299.647 94.5947C292.213 94.5947 285.804 90.4289 285.804 82.482C285.804 75.1759 291.828 67.9339 301.698 67.9339C312.337 67.9339 316.695 76.3295 316.695 83.6355C316.695 95.4278 307.081 107.156 290.867 110.873L290.29 108.117ZM295.481 80.3029C295.481 87.2886 297.789 91.5184 302.018 91.5184C304.005 91.5184 305.607 90.6212 306.761 89.4035C307.017 87.5449 307.081 85.6223 307.081 83.5715C307.081 75.4963 305.672 70.8179 301.057 70.8179C296.122 70.8179 295.481 76.2654 295.481 80.3029ZM325.153 108.117C334.639 105.618 339.253 100.555 340.983 92.9925C339.509 93.9538 337.394 94.5947 334.51 94.5947C327.076 94.5947 320.667 90.4289 320.667 82.482C320.667 75.1759 326.692 67.9339 336.561 67.9339C347.2 67.9339 351.558 76.3295 351.558 83.6355C351.558 95.4278 341.945 107.156 325.73 110.873L325.153 108.117ZM330.345 80.3029C330.345 87.2886 332.652 91.5184 336.882 91.5184C338.868 91.5184 340.471 90.6212 341.624 89.4035C341.881 87.5449 341.945 85.6223 341.945 83.5715C341.945 75.4963 340.535 70.8179 335.92 70.8179C330.985 70.8179 330.345 76.2654 330.345 80.3029Z" fill="url(#paint0_linear_196_112)"/>
<path d="M0 91.0057H169.747V94.2102H0V91.0057Z" fill="url(#paint1_linear_196_112)"/>
<defs>
<linearGradient id="paint0_linear_196_112" x1="-232.286" y1="56.9037" x2="645.422" y2="56.9037" gradientUnits="userSpaceOnUse">
<stop stop-color="#F79009"/>
<stop offset="1" stop-color="#4A00E0"/>
</linearGradient>
<linearGradient id="paint1_linear_196_112" x1="-232.286" y1="56.9037" x2="645.422" y2="56.9037" gradientUnits="userSpaceOnUse">
<stop stop-color="#F79009"/>
<stop offset="1" stop-color="#4A00E0"/>
</linearGradient>
</defs>
</svg>
