<svg width="137" height="137" viewBox="0 0 137 137" fill="none" xmlns="http://www.w3.org/2000/svg">
<g clip-path="url(#clip0_196_134)">
<path d="M0.000976563 68.5C0.000976563 70.7709 0.903094 72.9488 2.50887 74.5546C4.11466 76.1604 6.29256 77.0625 8.56348 77.0625H58.5114C58.8899 77.0625 59.2529 77.2129 59.5205 77.4805C59.7881 77.7481 59.9385 78.1111 59.9385 78.4896V128.438C59.9385 130.708 60.8406 132.886 62.4464 134.492C64.0522 136.098 66.2301 137 68.501 137C70.7719 137 72.9498 136.098 74.5556 134.492C76.1614 132.886 77.0635 130.708 77.0635 128.438V78.4896C77.0635 78.1111 77.2138 77.7481 77.4815 77.4805C77.7491 77.2129 78.1121 77.0625 78.4906 77.0625H128.438C130.709 77.0625 132.887 76.1604 134.493 74.5546C136.099 72.9488 137.001 70.7709 137.001 68.5C137.001 66.2291 136.099 64.0512 134.493 62.4454C132.887 60.8396 130.709 59.9375 128.438 59.9375H78.4906C78.1121 59.9375 77.7491 59.7872 77.4815 59.5195C77.2138 59.2519 77.0635 58.8889 77.0635 58.5104V8.5625C77.0635 6.29158 76.1614 4.11368 74.5556 2.5079C72.9498 0.902118 70.7719 0 68.501 0C66.2301 0 64.0522 0.902118 62.4464 2.5079C60.8406 4.11368 59.9385 6.29158 59.9385 8.5625V58.5104C59.9385 58.8889 59.7881 59.2519 59.5205 59.5195C59.2529 59.7872 58.8899 59.9375 58.5114 59.9375H8.56348C6.29256 59.9375 4.11466 60.8396 2.50887 62.4454C0.903094 64.0512 0.000976563 66.2291 0.000976563 68.5Z" fill="url(#paint0_linear_196_134)"/>
</g>
<defs>
<linearGradient id="paint0_linear_196_134" x1="-56.2454" y1="67.1569" x2="156.285" y2="67.1569" gradientUnits="userSpaceOnUse">
<stop stop-color="#F79009"/>
<stop offset="1" stop-color="#4A00E0"/>
</linearGradient>
<clipPath id="clip0_196_134">
<rect width="137" height="137" fill="white"/>
</clipPath>
</defs>
</svg>
